<svg width="60" height="60" viewBox="0 0 60 60" fill="none" xmlns="http://www.w3.org/2000/svg">
  <rect width="60" height="60" rx="10" fill="#853FE7"/>
  <path d="M32.98 19.7728C32.98 19.7708 32.9794 19.7687 32.9783 19.767C28.8378 13.446 19.0968 19.0319 22.9488 25.7347C27.0456 31.8951 36.6433 26.5528 33.0411 19.8735L32.9816 19.7783C32.9806 19.7767 32.98 19.7748 32.98 19.7728ZM29.1886 25.3806C26.0137 27.0535 23.8219 22.218 26.4472 20.3253C29.7258 18.225 32.2474 23.378 29.2862 25.3195L29.1886 25.3806Z" fill="#F3F451"/>
  <path d="M27.0945 39.9538L23.8403 38.6412L27.2166 30.2706L24.4264 29.1411L20 40.1126L26.0444 42.5486L27.0945 39.9538Z" fill="#F3F451"/>
  <path d="M38.6642 35.8515L35.4649 37.2924L31.7589 29.0562L29.0176 30.2956L33.8653 41.0777L39.812 38.4097L38.6642 35.8515Z" fill="#F3F451"/>
  </svg>
  